<?xml version="1.0" encoding="utf-8"?>
<!-- Generator: Adobe Illustrator 16.0.0, SVG Export Plug-In . SVG Version: 6.00 Build 0)  -->
<!DOCTYPE svg PUBLIC "-//W3C//DTD SVG 1.1//EN" "http://www.w3.org/Graphics/SVG/1.1/DTD/svg11.dtd">
<svg version="1.1" id="Layer_1" xmlns="http://www.w3.org/2000/svg" xmlns:xlink="http://www.w3.org/1999/xlink" x="0px" y="0px"
	 width="960px" height="960px" viewBox="0 0 960 960" enable-background="new 0 0 960 960" xml:space="preserve">
<circle fill="#E6E6E6" stroke="#000000" stroke-width="4" stroke-miterlimit="10" cx="480" cy="480" r="420"/>
<line fill="none" stroke="#000000" stroke-width="6" stroke-miterlimit="10" x1="60" y1="483" x2="900" y2="483"/>
<line fill="none" stroke="#000000" stroke-width="6" stroke-miterlimit="10" x1="477" y1="60" x2="477" y2="900"/>
<g>
	<path d="M172.04,326.667l-8.208-32.355h4.416l3.84,16.37c0.96,4.032,1.824,8.064,2.4,11.185h0.096
		c0.528-3.216,1.536-7.057,2.64-11.233l4.32-16.322h4.368l3.937,16.417c0.912,3.84,1.776,7.681,2.256,11.089h0.096
		c0.672-3.552,1.584-7.152,2.592-11.185l4.272-16.322h4.272l-9.169,32.355h-4.368l-4.081-16.85
		c-1.008-4.128-1.68-7.296-2.112-10.561h-0.096c-0.576,3.216-1.296,6.384-2.496,10.561l-4.608,16.85H172.04z"/>
	<path d="M207.992,315.818c0.096,5.713,3.744,8.065,7.969,8.065c3.024,0,4.849-0.528,6.433-1.2l0.72,3.024
		c-1.488,0.672-4.033,1.44-7.729,1.44c-7.152,0-11.425-4.705-11.425-11.713c0-7.009,4.128-12.529,10.897-12.529
		c7.584,0,9.601,6.673,9.601,10.945c0,0.864-0.096,1.536-0.144,1.968H207.992z M220.377,312.794
		c0.048-2.688-1.104-6.865-5.856-6.865c-4.272,0-6.145,3.937-6.481,6.865H220.377z"/>
	<path d="M249.753,292.584v28.083c0,2.064,0.048,4.417,0.192,6h-3.792l-0.192-4.032h-0.096c-1.296,2.592-4.128,4.56-7.92,4.56
		c-5.617,0-9.937-4.752-9.937-11.809c-0.048-7.729,4.752-12.481,10.417-12.481c3.552,0,5.952,1.68,7.008,3.552h0.096v-13.873
		H249.753z M245.529,312.89c0-0.528-0.048-1.248-0.192-1.776c-0.624-2.688-2.928-4.896-6.097-4.896c-4.368,0-6.96,3.84-6.96,8.977
		c0,4.705,2.304,8.593,6.864,8.593c2.833,0,5.425-1.872,6.193-5.041c0.144-0.576,0.192-1.152,0.192-1.824V312.89z"/>
	<path d="M261.463,296.904c0.048,1.44-1.008,2.592-2.688,2.592c-1.488,0-2.544-1.152-2.544-2.592c0-1.488,1.104-2.64,2.641-2.64
		C260.456,294.264,261.463,295.417,261.463,296.904z M256.759,326.667v-23.234h4.224v23.234H256.759z"/>
	<path d="M262.326,333.388c1.92-0.144,3.6-0.672,4.608-1.776c1.152-1.344,1.584-3.168,1.584-8.737v-19.441h4.225v21.074
		c0,4.512-0.72,7.44-2.784,9.553c-1.873,1.872-4.945,2.64-7.201,2.64L262.326,333.388z M273.223,296.904
		c0.048,1.392-0.96,2.592-2.64,2.592c-1.584,0-2.592-1.2-2.592-2.592c0-1.488,1.104-2.64,2.688-2.64
		C272.215,294.264,273.223,295.417,273.223,296.904z"/>
	<path d="M281.287,303.433l4.561,13.057c0.768,2.112,1.392,4.032,1.872,5.952h0.144c0.528-1.92,1.2-3.84,1.968-5.952l4.512-13.057
		h4.417l-9.121,23.234h-4.032l-8.833-23.234H281.287z"/>
	<path d="M304.614,315.818c0.096,5.713,3.744,8.065,7.969,8.065c3.024,0,4.849-0.528,6.433-1.2l0.72,3.024
		c-1.488,0.672-4.033,1.44-7.729,1.44c-7.152,0-11.425-4.705-11.425-11.713c0-7.009,4.128-12.529,10.897-12.529
		c7.584,0,9.601,6.673,9.601,10.945c0,0.864-0.096,1.536-0.144,1.968H304.614z M317,312.794c0.048-2.688-1.104-6.865-5.856-6.865
		c-4.272,0-6.145,3.937-6.481,6.865H317z"/>
	<path d="M326.31,310.682c0-2.736-0.048-5.088-0.192-7.249h3.696l0.144,4.56h0.192c1.056-3.12,3.6-5.088,6.433-5.088
		c0.48,0,0.816,0.048,1.2,0.144v3.984c-0.432-0.096-0.864-0.144-1.44-0.144c-2.976,0-5.088,2.256-5.665,5.425
		c-0.096,0.576-0.192,1.248-0.192,1.968v12.385h-4.176V310.682z"/>
	<path d="M343.878,315.818c0.096,5.713,3.744,8.065,7.969,8.065c3.024,0,4.849-0.528,6.433-1.2l0.72,3.024
		c-1.488,0.672-4.033,1.44-7.729,1.44c-7.152,0-11.425-4.705-11.425-11.713c0-7.009,4.128-12.529,10.897-12.529
		c7.584,0,9.601,6.673,9.601,10.945c0,0.864-0.096,1.536-0.144,1.968H343.878z M356.263,312.794
		c0.048-2.688-1.104-6.865-5.856-6.865c-4.272,0-6.145,3.937-6.481,6.865H356.263z"/>
	<path d="M365.574,309.722c0-2.4-0.048-4.369-0.192-6.289h3.744l0.24,3.84h0.096c1.152-2.208,3.84-4.369,7.681-4.369
		c3.216,0,8.209,1.92,8.209,9.889v13.873h-4.225v-13.393c0-3.745-1.392-6.865-5.376-6.865c-2.784,0-4.944,1.968-5.665,4.32
		c-0.192,0.528-0.288,1.248-0.288,1.968v13.969h-4.224V309.722z"/>
	<path d="M412.279,292.584v28.083c0,2.064,0.048,4.417,0.192,6h-3.792l-0.192-4.032h-0.096c-1.296,2.592-4.128,4.56-7.92,4.56
		c-5.617,0-9.937-4.752-9.937-11.809c-0.048-7.729,4.752-12.481,10.417-12.481c3.552,0,5.952,1.68,7.008,3.552h0.096v-13.873
		H412.279z M408.055,312.89c0-0.528-0.048-1.248-0.192-1.776c-0.624-2.688-2.928-4.896-6.097-4.896c-4.368,0-6.96,3.84-6.96,8.977
		c0,4.705,2.304,8.593,6.864,8.593c2.833,0,5.425-1.872,6.193-5.041c0.144-0.576,0.192-1.152,0.192-1.824V312.89z"/>
</g>
<g>
	<path d="M417.889,10.3c1.824-0.384,4.704-0.672,7.632-0.672c4.177,0,6.865,0.72,8.881,2.352c1.68,1.248,2.688,3.168,2.688,5.712
		c0,3.121-2.064,5.856-5.473,7.105v0.096c3.072,0.768,6.673,3.312,6.673,8.113c0,2.784-1.104,4.896-2.736,6.48
		c-2.256,2.064-5.905,3.024-11.185,3.024c-2.88,0-5.088-0.192-6.48-0.384V10.3z M422.065,23.549h3.792
		c4.416,0,7.008-2.304,7.008-5.424c0-3.792-2.88-5.28-7.104-5.28c-1.92,0-3.024,0.144-3.696,0.288V23.549z M422.065,39.054
		c0.816,0.144,2.016,0.192,3.504,0.192c4.32,0,8.305-1.584,8.305-6.289c0-4.417-3.792-6.241-8.353-6.241h-3.456V39.054z"/>
	<path d="M464.978,30.414c0,8.593-5.953,12.337-11.569,12.337c-6.289,0-11.137-4.608-11.137-11.953
		c0-7.777,5.088-12.337,11.521-12.337C460.465,18.46,464.978,23.309,464.978,30.414z M446.544,30.654
		c0,5.088,2.928,8.929,7.057,8.929c4.032,0,7.057-3.792,7.057-9.025c0-3.937-1.968-8.929-6.961-8.929
		C448.705,21.629,446.544,26.237,446.544,30.654z"/>
	<path d="M471.601,18.989l4.561,13.057c0.768,2.112,1.392,4.032,1.872,5.952h0.144c0.528-1.92,1.2-3.84,1.968-5.952l4.513-13.057
		h4.416l-9.121,23.234h-4.032l-8.833-23.234H471.601z"/>
	<path d="M494.928,31.374c0.097,5.713,3.744,8.065,7.969,8.065c3.025,0,4.85-0.528,6.434-1.2l0.72,3.024
		c-1.488,0.672-4.032,1.44-7.729,1.44c-7.152,0-11.424-4.705-11.424-11.713c0-7.009,4.128-12.529,10.896-12.529
		c7.584,0,9.601,6.673,9.601,10.945c0,0.864-0.096,1.536-0.144,1.968H494.928z M507.313,28.35c0.048-2.688-1.104-6.865-5.856-6.865
		c-4.272,0-6.145,3.937-6.48,6.865H507.313z"/>
	<path d="M516.624,25.277c0-2.4-0.048-4.369-0.192-6.289h3.744l0.24,3.84h0.096c1.152-2.208,3.841-4.369,7.682-4.369
		c3.216,0,8.209,1.92,8.209,9.889v13.873h-4.225V28.83c0-3.745-1.393-6.865-5.377-6.865c-2.784,0-4.944,1.968-5.664,4.32
		c-0.192,0.528-0.289,1.248-0.289,1.968v13.969h-4.224V25.277z"/>
</g>
<g>
	<path d="M444.035,927.932c0,11.137-6.769,17.041-15.025,17.041c-8.545,0-14.545-6.625-14.545-16.417
		c0-10.272,6.385-16.993,15.025-16.993C438.323,911.562,444.035,918.33,444.035,927.932z M418.929,928.459
		c0,6.913,3.745,13.105,10.321,13.105c6.625,0,10.369-6.096,10.369-13.441c0-6.432-3.36-13.152-10.321-13.152
		C422.385,914.971,418.929,921.355,418.929,928.459z"/>
	<path d="M449.312,927.5c0-2.4-0.048-4.369-0.192-6.289h3.744l0.24,3.84h0.096c1.152-2.208,3.84-4.368,7.681-4.368
		c3.216,0,8.209,1.921,8.209,9.89v13.873h-4.225v-13.394c0-3.745-1.392-6.864-5.376-6.864c-2.784,0-4.944,1.968-5.665,4.32
		c-0.192,0.527-0.288,1.248-0.288,1.968v13.97h-4.224V927.5z"/>
	<path d="M496.018,910.361v28.083c0,2.063,0.049,4.417,0.192,6.001h-3.792l-0.192-4.033h-0.097c-1.295,2.593-4.128,4.561-7.92,4.561
		c-5.617,0-9.937-4.752-9.937-11.809c-0.048-7.729,4.752-12.481,10.417-12.481c3.552,0,5.951,1.681,7.008,3.552h0.096v-13.873
		H496.018z M491.793,930.668c0-0.528-0.047-1.248-0.191-1.776c-0.624-2.688-2.928-4.896-6.097-4.896c-4.368,0-6.96,3.841-6.96,8.977
		c0,4.704,2.304,8.593,6.864,8.593c2.833,0,5.426-1.872,6.193-5.041c0.145-0.575,0.191-1.151,0.191-1.823V930.668z"/>
	<path d="M505.376,933.596c0.097,5.713,3.745,8.064,7.969,8.064c3.024,0,4.849-0.527,6.433-1.199l0.721,3.023
		c-1.488,0.672-4.033,1.44-7.729,1.44c-7.152,0-11.425-4.704-11.425-11.713s4.129-12.529,10.896-12.529
		c7.585,0,9.602,6.673,9.602,10.945c0,0.864-0.096,1.536-0.145,1.968H505.376z M517.762,930.572
		c0.047-2.689-1.104-6.865-5.857-6.865c-4.271,0-6.145,3.937-6.48,6.865H517.762z"/>
	<path d="M527.071,928.459c0-2.736-0.048-5.088-0.192-7.248h3.697l0.144,4.561h0.192c1.056-3.121,3.6-5.089,6.432-5.089
		c0.48,0,0.816,0.048,1.201,0.144v3.984c-0.433-0.096-0.865-0.144-1.441-0.144c-2.976,0-5.088,2.257-5.664,5.425
		c-0.096,0.576-0.191,1.248-0.191,1.968v12.386h-4.177V928.459z"/>
</g>
<g>
	<path d="M14.286,534.215v9.84h-3.552v-23.953h3.552v9.889h28.803v4.225H14.286z"/>
	<path d="M32.239,517.703c5.713-0.096,8.065-3.744,8.065-7.969c0-3.024-0.528-4.849-1.2-6.433l3.024-0.72
		c0.672,1.488,1.44,4.032,1.44,7.729c0,7.152-4.705,11.425-11.713,11.425c-7.009,0-12.529-4.128-12.529-10.897
		c0-7.584,6.673-9.6,10.945-9.6c0.864,0,1.536,0.096,1.968,0.144V517.703z M29.215,505.318c-2.688-0.049-6.865,1.104-6.865,5.855
		c0,4.273,3.937,6.145,6.865,6.481V505.318z"/>
	<path d="M19.854,475.99c1.68,0.096,3.552,0.192,6.384,0.192h13.489c5.329,0,8.593,1.056,10.609,3.312
		c2.112,2.255,2.784,5.521,2.784,8.449c0,2.784-0.672,5.856-1.92,7.729l-3.216-1.057c0.96-1.535,1.824-3.936,1.824-6.816
		c0-4.32-2.256-7.488-8.113-7.488h-2.592v0.096c2.16,1.296,3.888,3.792,3.888,7.392c0,5.761-4.896,9.889-11.329,9.889
		c-7.873,0-12.337-5.136-12.337-10.465c0-4.031,2.112-6.24,4.033-7.248v-0.096l-3.504-0.192V475.99z M29.023,480.358
		c-0.72,0-1.344,0.048-1.92,0.24c-2.448,0.769-4.464,2.832-4.464,5.904c0,4.032,3.408,6.913,8.785,6.913
		c4.561,0,8.353-2.305,8.353-6.865c0-2.592-1.632-4.944-4.32-5.856c-0.72-0.24-1.536-0.336-2.256-0.336H29.023z"/>
	<path d="M32.239,466.824c5.713-0.096,8.065-3.744,8.065-7.969c0-3.024-0.528-4.849-1.2-6.433l3.024-0.72
		c0.672,1.488,1.44,4.033,1.44,7.729c0,7.152-4.705,11.425-11.713,11.425c-7.009,0-12.529-4.128-12.529-10.897
		c0-7.584,6.673-9.601,10.945-9.601c0.864,0,1.536,0.096,1.968,0.144V466.824z M29.215,454.438
		c-2.688-0.048-6.865,1.104-6.865,5.856c0,4.272,3.937,6.145,6.865,6.481V454.438z"/>
	<path d="M26.143,445.128c-2.4,0-4.369,0.048-6.289,0.192v-3.744l3.84-0.24v-0.096c-2.208-1.152-4.369-3.84-4.369-7.681
		c0-3.216,1.92-8.209,9.889-8.209h13.873v4.225H29.695c-3.745,0-6.865,1.392-6.865,5.376c0,2.784,1.968,4.944,4.32,5.665
		c0.528,0.192,1.248,0.288,1.968,0.288h13.969v4.224H26.143z"/>
</g>
<g>
	<path d="M919.445,416.289c-1.152,1.872-2.112,4.608-2.112,7.489c0,4.272,2.257,6.769,5.521,6.769c3.024,0,4.752-1.728,6.433-6.097
		c1.872-5.28,4.608-8.544,9.169-8.544c5.041,0,8.785,4.176,8.785,10.465c0,3.312-0.769,5.712-1.584,7.152l-3.408-1.152
		c0.575-1.056,1.535-3.216,1.535-6.145c0-4.417-2.641-6.097-4.848-6.097c-3.025,0-4.513,1.968-6.241,6.433
		c-2.112,5.472-4.753,8.257-9.505,8.257c-4.992,0-9.312-3.696-9.312-11.329c0-3.12,0.912-6.529,2.064-8.257L919.445,416.289z"/>
	<path d="M914.357,453.394l2.928-0.336v-0.144c-1.824-1.296-3.456-3.792-3.456-7.104c0-4.704,3.312-7.104,6.673-7.104
		c5.616,0,8.688,4.992,8.641,13.969h0.479c1.921,0,5.376-0.528,5.376-5.28c0-2.161-0.672-4.417-1.728-6.049l2.784-0.96
		c1.248,1.92,2.064,4.704,2.064,7.633c0,7.104-4.849,8.833-9.505,8.833h-8.688c-2.017,0-3.984,0.096-5.568,0.384V453.394z
		 M926.214,452.769c0.097-4.608-0.72-9.841-5.232-9.841c-2.736,0-4.032,1.824-4.032,3.984c0,3.024,1.92,4.945,3.889,5.617
		c0.432,0.144,0.912,0.24,1.344,0.24H926.214z"/>
	<path d="M931.303,463.664c2.4,0,4.368-0.048,6.288-0.192v3.696l-3.744,0.192v0.144c2.208,1.296,4.272,3.456,4.272,7.296
		c0,3.168-1.92,5.569-4.656,6.576v0.097c1.296,0.72,2.304,1.632,3.023,2.593c1.057,1.392,1.633,2.928,1.633,5.136
		c0,3.072-2.016,7.633-10.081,7.633h-13.681v-4.128h13.152c4.465,0,7.152-1.633,7.152-5.041c0-2.4-1.775-4.272-3.84-4.992
		c-0.576-0.192-1.344-0.336-2.112-0.336h-14.353v-4.128h13.921c3.696,0,6.384-1.632,6.384-4.849c0-2.64-2.111-4.561-4.224-5.232
		c-0.624-0.24-1.345-0.336-2.064-0.336h-14.017v-4.128H931.303z"/>
	<path d="M925.206,506.048c-5.713,0.097-8.065,3.745-8.065,7.969c0,3.024,0.529,4.849,1.201,6.433l-3.025,0.721
		c-0.672-1.488-1.439-4.033-1.439-7.729c0-7.152,4.705-11.425,11.713-11.425c7.009,0,12.529,4.129,12.529,10.896
		c0,7.585-6.673,9.602-10.945,9.602c-0.863,0-1.536-0.096-1.968-0.145V506.048z M928.23,518.434
		c2.688,0.047,6.864-1.104,6.864-5.857c0-4.271-3.937-6.145-6.864-6.48V518.434z"/>
	<path d="M931.303,527.743c2.4,0,4.368-0.048,6.288-0.192v3.744l-3.841,0.24v0.096c2.209,1.152,4.369,3.841,4.369,7.682
		c0,3.216-1.92,8.209-9.889,8.209h-13.873v-4.225h13.393c3.744,0,6.865-1.393,6.865-5.377c0-2.784-1.969-4.944-4.32-5.664
		c-0.529-0.192-1.248-0.289-1.969-0.289h-13.969v-4.224H931.303z"/>
</g>
<g>
	<path d="M520.094,294.312h4.176v28.851h13.826v3.504h-18.002V294.312z"/>
	<path d="M544.285,315.818c0.096,5.713,3.744,8.065,7.969,8.065c3.024,0,4.849-0.528,6.433-1.2l0.72,3.024
		c-1.488,0.672-4.032,1.44-7.729,1.44c-7.152,0-11.425-4.705-11.425-11.713c0-7.009,4.128-12.529,10.897-12.529
		c7.584,0,9.6,6.673,9.6,10.945c0,0.864-0.096,1.536-0.144,1.968H544.285z M556.67,312.794c0.049-2.688-1.104-6.865-5.855-6.865
		c-4.273,0-6.145,3.937-6.481,6.865H556.67z"/>
	<path d="M570.686,296.904c0.048,1.44-1.008,2.592-2.688,2.592c-1.488,0-2.544-1.152-2.544-2.592c0-1.488,1.104-2.64,2.641-2.64
		C569.678,294.264,570.686,295.417,570.686,296.904z M565.98,326.667v-23.234h4.225v23.234H565.98z"/>
	<path d="M597.277,292.584v28.083c0,2.064,0.049,4.417,0.193,6h-3.793l-0.191-4.032h-0.097c-1.296,2.592-4.128,4.56-7.921,4.56
		c-5.616,0-9.937-4.752-9.937-11.809c-0.048-7.729,4.753-12.481,10.417-12.481c3.553,0,5.952,1.68,7.008,3.552h0.097v-13.873
		H597.277z M593.054,312.89c0-0.528-0.048-1.248-0.192-1.776c-0.623-2.688-2.928-4.896-6.096-4.896c-4.369,0-6.961,3.84-6.961,8.977
		c0,4.705,2.305,8.593,6.864,8.593c2.833,0,5.425-1.872,6.192-5.041c0.145-0.576,0.192-1.152,0.192-1.824V312.89z"/>
	<path d="M608.988,296.904c0.049,1.44-1.008,2.592-2.688,2.592c-1.488,0-2.545-1.152-2.545-2.592c0-1.488,1.105-2.64,2.641-2.64
		C607.98,294.264,608.988,295.417,608.988,296.904z M604.285,326.667v-23.234h4.224v23.234H604.285z"/>
	<path d="M615.516,309.722c0-2.4-0.048-4.369-0.191-6.289h3.744l0.24,3.84h0.096c1.152-2.208,3.84-4.369,7.681-4.369
		c3.216,0,8.209,1.92,8.209,9.889v13.873h-4.225v-13.393c0-3.745-1.392-6.865-5.376-6.865c-2.785,0-4.945,1.968-5.665,4.32
		c-0.192,0.528-0.288,1.248-0.288,1.968v13.969h-4.225V309.722z"/>
	<path d="M662.174,303.433c-0.097,1.68-0.192,3.552-0.192,6.384v13.489c0,5.329-1.056,8.593-3.312,10.609
		c-2.256,2.112-5.521,2.784-8.448,2.784c-2.785,0-5.857-0.672-7.729-1.92l1.056-3.216c1.536,0.96,3.937,1.824,6.816,1.824
		c4.32,0,7.489-2.256,7.489-8.113v-2.592h-0.097c-1.296,2.16-3.792,3.888-7.393,3.888c-5.761,0-9.889-4.896-9.889-11.329
		c0-7.873,5.136-12.337,10.465-12.337c4.032,0,6.241,2.112,7.249,4.033h0.096l0.191-3.504H662.174z M657.805,312.602
		c0-0.72-0.048-1.344-0.24-1.92c-0.768-2.448-2.832-4.464-5.904-4.464c-4.032,0-6.912,3.408-6.912,8.785
		c0,4.561,2.305,8.353,6.864,8.353c2.593,0,4.944-1.632,5.856-4.32c0.24-0.72,0.336-1.536,0.336-2.256V312.602z"/>
	<path d="M668.699,309.722c0-2.4-0.048-4.369-0.191-6.289h3.744l0.24,3.84h0.096c1.152-2.208,3.84-4.369,7.681-4.369
		c3.216,0,8.209,1.92,8.209,9.889v13.873h-4.225v-13.393c0-3.745-1.392-6.865-5.376-6.865c-2.785,0-4.945,1.968-5.665,4.32
		c-0.192,0.528-0.288,1.248-0.288,1.968v13.969h-4.225V309.722z"/>
	<path d="M697.691,315.818c0.096,5.713,3.744,8.065,7.969,8.065c3.024,0,4.849-0.528,6.433-1.2l0.72,3.024
		c-1.488,0.672-4.032,1.44-7.729,1.44c-7.152,0-11.425-4.705-11.425-11.713c0-7.009,4.128-12.529,10.897-12.529
		c7.584,0,9.6,6.673,9.6,10.945c0,0.864-0.096,1.536-0.144,1.968H697.691z M710.076,312.794c0.049-2.688-1.104-6.865-5.855-6.865
		c-4.273,0-6.145,3.937-6.481,6.865H710.076z"/>
	<path d="M719.387,309.722c0-2.4-0.048-4.369-0.191-6.289h3.695l0.192,3.744h0.144c1.297-2.208,3.457-4.272,7.297-4.272
		c3.168,0,5.568,1.92,6.576,4.657h0.097c0.72-1.296,1.632-2.304,2.593-3.024c1.392-1.056,2.928-1.632,5.136-1.632
		c3.072,0,7.633,2.016,7.633,10.081v13.681h-4.128v-13.153c0-4.464-1.633-7.152-5.041-7.152c-2.4,0-4.272,1.776-4.992,3.84
		c-0.192,0.576-0.336,1.344-0.336,2.112v14.353h-4.129v-13.921c0-3.696-1.632-6.384-4.848-6.384c-2.641,0-4.561,2.112-5.232,4.224
		c-0.24,0.624-0.336,1.344-0.336,2.064v14.017h-4.129V309.722z"/>
	<path d="M761.771,315.818c0.097,5.713,3.744,8.065,7.969,8.065c3.024,0,4.849-0.528,6.433-1.2l0.721,3.024
		c-1.488,0.672-4.033,1.44-7.729,1.44c-7.152,0-11.425-4.705-11.425-11.713c0-7.009,4.129-12.529,10.896-12.529
		c7.585,0,9.602,6.673,9.602,10.945c0,0.864-0.096,1.536-0.145,1.968H761.771z M774.156,312.794
		c0.047-2.688-1.104-6.865-5.857-6.865c-4.271,0-6.145,3.937-6.48,6.865H774.156z"/>
	<path d="M783.467,309.722c0-2.4-0.049-4.369-0.192-6.289h3.744l0.24,3.84h0.096c1.152-2.208,3.841-4.369,7.681-4.369
		c3.217,0,8.209,1.92,8.209,9.889v13.873h-4.225v-13.393c0-3.745-1.393-6.865-5.377-6.865c-2.783,0-4.943,1.968-5.664,4.32
		c-0.191,0.528-0.288,1.248-0.288,1.968v13.969h-4.224V309.722z"/>
	<path d="M830.172,292.584v28.083c0,2.064,0.048,4.417,0.191,6h-3.792l-0.192-4.032h-0.096c-1.296,2.592-4.128,4.56-7.921,4.56
		c-5.616,0-9.937-4.752-9.937-11.809c-0.048-7.729,4.752-12.481,10.417-12.481c3.552,0,5.952,1.68,7.009,3.552h0.096v-13.873
		H830.172z M825.947,312.89c0-0.528-0.048-1.248-0.192-1.776c-0.624-2.688-2.928-4.896-6.096-4.896c-4.369,0-6.961,3.84-6.961,8.977
		c0,4.705,2.304,8.593,6.864,8.593c2.832,0,5.425-1.872,6.192-5.041c0.145-0.576,0.192-1.152,0.192-1.824V312.89z"/>
</g>
<g>
	<path d="M178.308,687.111l-10.561-32.355h4.513l5.04,15.938c1.392,4.369,2.592,8.305,3.457,12.098h0.096
		c0.912-3.744,2.256-7.824,3.696-12.049l5.472-15.986h4.464l-11.569,32.355H178.308z"/>
	<path d="M198.612,676.262c0.096,5.713,3.744,8.065,7.969,8.065c3.024,0,4.849-0.528,6.433-1.2l0.72,3.024
		c-1.488,0.672-4.033,1.44-7.729,1.44c-7.152,0-11.425-4.705-11.425-11.713c0-7.01,4.128-12.529,10.897-12.529
		c7.584,0,9.601,6.672,9.601,10.945c0,0.863-0.096,1.535-0.144,1.967H198.612z M210.997,673.238
		c0.048-2.688-1.104-6.865-5.856-6.865c-4.272,0-6.145,3.938-6.481,6.865H210.997z"/>
	<path d="M220.308,671.126c0-2.736-0.048-5.089-0.192-7.249h3.696l0.144,4.561h0.192c1.056-3.12,3.6-5.088,6.433-5.088
		c0.48,0,0.816,0.048,1.2,0.144v3.984c-0.432-0.096-0.864-0.144-1.44-0.144c-2.976,0-5.088,2.256-5.665,5.424
		c-0.096,0.576-0.192,1.248-0.192,1.969v12.385h-4.176V671.126z"/>
	<path d="M236.195,670.166c0-2.4-0.048-4.369-0.192-6.289h3.696l0.192,3.744h0.144c1.296-2.207,3.456-4.271,7.296-4.271
		c3.168,0,5.569,1.92,6.577,4.656h0.096c0.72-1.297,1.632-2.305,2.592-3.024c1.392-1.056,2.928-1.632,5.136-1.632
		c3.072,0,7.633,2.016,7.633,10.08v13.682h-4.128v-13.153c0-4.464-1.632-7.152-5.041-7.152c-2.4,0-4.272,1.776-4.992,3.841
		c-0.192,0.576-0.336,1.344-0.336,2.111v14.354h-4.128v-13.922c0-3.695-1.632-6.384-4.849-6.384c-2.64,0-4.561,2.112-5.232,4.224
		c-0.24,0.625-0.336,1.345-0.336,2.064v14.018h-4.128V670.166z"/>
	<path d="M280.932,657.349c0.048,1.44-1.008,2.593-2.688,2.593c-1.488,0-2.544-1.152-2.544-2.593c0-1.487,1.104-2.64,2.641-2.64
		C279.924,654.709,280.932,655.861,280.932,657.349z M276.228,687.111v-23.234h4.224v23.234H276.228z"/>
	<path d="M281.794,693.832c1.92-0.145,3.6-0.672,4.608-1.776c1.152-1.345,1.584-3.168,1.584-8.737v-19.441h4.225v21.074
		c0,4.512-0.72,7.44-2.784,9.553c-1.873,1.872-4.945,2.641-7.201,2.641L281.794,693.832z M292.691,657.349
		c0.048,1.392-0.96,2.593-2.64,2.593c-1.584,0-2.592-1.201-2.592-2.593c0-1.487,1.104-2.64,2.688-2.64
		C291.683,654.709,292.691,655.861,292.691,657.349z"/>
	<path d="M319.188,653.028v28.083c0,2.063,0.048,4.416,0.192,6h-3.792l-0.192-4.032H315.3c-1.296,2.593-4.128,4.56-7.92,4.56
		c-5.617,0-9.937-4.752-9.937-11.809c-0.048-7.729,4.752-12.48,10.417-12.48c3.552,0,5.952,1.68,7.008,3.552h0.096v-13.873H319.188z
		 M314.964,673.334c0-0.527-0.048-1.248-0.192-1.775c-0.624-2.689-2.928-4.896-6.097-4.896c-4.368,0-6.96,3.84-6.96,8.977
		c0,4.704,2.304,8.592,6.864,8.592c2.833,0,5.425-1.871,6.193-5.04c0.144-0.575,0.192-1.151,0.192-1.823V673.334z"/>
	<path d="M328.546,676.262c0.096,5.713,3.744,8.065,7.969,8.065c3.024,0,4.849-0.528,6.433-1.2l0.72,3.024
		c-1.488,0.672-4.033,1.44-7.729,1.44c-7.152,0-11.425-4.705-11.425-11.713c0-7.01,4.128-12.529,10.897-12.529
		c7.584,0,9.601,6.672,9.601,10.945c0,0.863-0.096,1.535-0.144,1.967H328.546z M340.932,673.238
		c0.048-2.688-1.104-6.865-5.856-6.865c-4.272,0-6.145,3.938-6.481,6.865H340.932z"/>
	<path d="M350.242,670.166c0-2.4-0.048-4.369-0.192-6.289h3.744l0.24,3.841h0.096c1.152-2.208,3.84-4.368,7.681-4.368
		c3.216,0,8.209,1.92,8.209,9.889v13.873h-4.225v-13.393c0-3.745-1.392-6.865-5.376-6.865c-2.784,0-4.944,1.969-5.665,4.32
		c-0.192,0.528-0.288,1.248-0.288,1.969v13.969h-4.224V670.166z"/>
	<path d="M396.947,653.028v28.083c0,2.063,0.048,4.416,0.192,6h-3.792l-0.192-4.032h-0.096c-1.296,2.593-4.128,4.56-7.92,4.56
		c-5.617,0-9.937-4.752-9.937-11.809c-0.048-7.729,4.752-12.48,10.417-12.48c3.552,0,5.952,1.68,7.008,3.552h0.096v-13.873H396.947z
		 M392.723,673.334c0-0.527-0.048-1.248-0.192-1.775c-0.624-2.689-2.928-4.896-6.097-4.896c-4.368,0-6.96,3.84-6.96,8.977
		c0,4.704,2.304,8.592,6.864,8.592c2.833,0,5.425-1.871,6.193-5.04c0.144-0.575,0.192-1.151,0.192-1.823V673.334z"/>
</g>
<g>
	<path d="M551.993,676.935l-3.36,10.177h-4.32l10.992-32.355h5.041l11.041,32.355h-4.465l-3.456-10.177H551.993z M562.602,673.67
		l-3.168-9.312c-0.72-2.112-1.2-4.032-1.68-5.904h-0.096c-0.48,1.92-1.009,3.889-1.633,5.856l-3.168,9.36H562.602z"/>
	<path d="M589.05,687.111l-0.337-2.928h-0.144c-1.296,1.824-3.792,3.455-7.104,3.455c-4.704,0-7.104-3.312-7.104-6.672
		c0-5.617,4.992-8.689,13.97-8.641v-0.48c0-1.92-0.529-5.376-5.281-5.376c-2.16,0-4.416,0.672-6.049,1.728l-0.959-2.783
		c1.92-1.248,4.704-2.064,7.633-2.064c7.104,0,8.832,4.848,8.832,9.504v8.689c0,2.016,0.096,3.984,0.385,5.568H589.05z
		 M588.426,675.254c-4.608-0.096-9.842,0.721-9.842,5.232c0,2.736,1.824,4.033,3.984,4.033c3.025,0,4.945-1.92,5.617-3.889
		c0.145-0.432,0.24-0.912,0.24-1.344V675.254z"/>
	<path d="M599.32,670.166c0-2.4-0.048-4.369-0.191-6.289h3.744l0.239,3.841h0.097c1.152-2.208,3.84-4.368,7.68-4.368
		c3.217,0,8.209,1.92,8.209,9.889v13.873h-4.225v-13.393c0-3.745-1.392-6.865-5.376-6.865c-2.784,0-4.944,1.969-5.665,4.32
		c-0.191,0.528-0.287,1.248-0.287,1.969v13.969h-4.225V670.166z"/>
	<path d="M625.96,671.462c0-2.976-0.097-5.376-0.192-7.585h3.793l0.191,3.984h0.096c1.729-2.832,4.465-4.512,8.258-4.512
		c5.615,0,9.84,4.752,9.84,11.809c0,8.354-5.088,12.48-10.561,12.48c-3.072,0-5.76-1.344-7.152-3.647h-0.096v12.625h-4.177V671.462z
		 M630.137,677.654c0,0.624,0.096,1.2,0.191,1.729c0.768,2.928,3.312,4.944,6.337,4.944c4.464,0,7.056-3.648,7.056-8.978
		c0-4.656-2.447-8.641-6.912-8.641c-2.88,0-5.568,2.064-6.385,5.232c-0.144,0.529-0.287,1.152-0.287,1.729V677.654z"/>
	<path d="M666.137,687.111l-0.337-2.928h-0.144c-1.297,1.824-3.793,3.455-7.105,3.455c-4.703,0-7.104-3.312-7.104-6.672
		c0-5.617,4.992-8.689,13.969-8.641v-0.48c0-1.92-0.528-5.376-5.28-5.376c-2.161,0-4.417,0.672-6.049,1.728l-0.96-2.783
		c1.92-1.248,4.704-2.064,7.633-2.064c7.104,0,8.832,4.848,8.832,9.504v8.689c0,2.016,0.097,3.984,0.385,5.568H666.137z
		 M665.512,675.254c-4.608-0.096-9.841,0.721-9.841,5.232c0,2.736,1.824,4.033,3.984,4.033c3.024,0,4.944-1.92,5.616-3.889
		c0.145-0.432,0.24-0.912,0.24-1.344V675.254z"/>
	<path d="M675.83,682.791c1.248,0.816,3.457,1.68,5.568,1.68c3.072,0,4.514-1.535,4.514-3.456c0-2.017-1.201-3.12-4.32-4.272
		c-4.178-1.488-6.145-3.792-6.145-6.576c0-3.744,3.023-6.816,8.016-6.816c2.353,0,4.417,0.672,5.713,1.439l-1.057,3.072
		c-0.912-0.576-2.592-1.344-4.752-1.344c-2.496,0-3.889,1.439-3.889,3.168c0,1.92,1.393,2.785,4.417,3.937
		c4.032,1.536,6.097,3.552,6.097,7.009c0,4.08-3.168,6.961-8.689,6.961c-2.544,0-4.896-0.625-6.528-1.584L675.83,682.791z"/>
	<path d="M694.838,682.791c1.248,0.816,3.457,1.68,5.568,1.68c3.072,0,4.514-1.535,4.514-3.456c0-2.017-1.201-3.12-4.32-4.272
		c-4.178-1.488-6.145-3.792-6.145-6.576c0-3.744,3.023-6.816,8.016-6.816c2.353,0,4.417,0.672,5.713,1.439l-1.057,3.072
		c-0.912-0.576-2.592-1.344-4.752-1.344c-2.496,0-3.889,1.439-3.889,3.168c0,1.92,1.393,2.785,4.417,3.937
		c4.032,1.536,6.097,3.552,6.097,7.009c0,4.08-3.168,6.961-8.689,6.961c-2.544,0-4.896-0.625-6.528-1.584L694.838,682.791z"/>
	<path d="M716.774,676.262c0.097,5.713,3.744,8.065,7.969,8.065c3.024,0,4.849-0.528,6.433-1.2l0.721,3.024
		c-1.488,0.672-4.033,1.44-7.729,1.44c-7.152,0-11.425-4.705-11.425-11.713c0-7.01,4.129-12.529,10.896-12.529
		c7.585,0,9.602,6.672,9.602,10.945c0,0.863-0.096,1.535-0.145,1.967H716.774z M729.16,673.238c0.047-2.688-1.104-6.865-5.857-6.865
		c-4.271,0-6.145,3.938-6.48,6.865H729.16z"/>
	<path d="M738.471,670.166c0-2.4-0.049-4.369-0.192-6.289h3.744l0.24,3.841h0.096c1.152-2.208,3.841-4.368,7.681-4.368
		c3.217,0,8.209,1.92,8.209,9.889v13.873h-4.225v-13.393c0-3.745-1.393-6.865-5.377-6.865c-2.783,0-4.943,1.969-5.664,4.32
		c-0.191,0.528-0.288,1.248-0.288,1.969v13.969h-4.224V670.166z"/>
	<path d="M785.176,653.028v28.083c0,2.063,0.048,4.416,0.191,6h-3.792l-0.192-4.032h-0.096c-1.296,2.593-4.129,4.56-7.92,4.56
		c-5.617,0-9.938-4.752-9.938-11.809c-0.048-7.729,4.752-12.48,10.417-12.48c3.552,0,5.952,1.68,7.009,3.552h0.096v-13.873H785.176z
		 M780.951,673.334c0-0.527-0.048-1.248-0.191-1.775c-0.625-2.689-2.929-4.896-6.098-4.896c-4.367,0-6.96,3.84-6.96,8.977
		c0,4.704,2.304,8.592,6.864,8.592c2.832,0,5.425-1.871,6.193-5.04c0.144-0.575,0.191-1.151,0.191-1.823V673.334z"/>
</g>
<g>
</g>
<g>
</g>
<g>
</g>
<g>
</g>
<g>
</g>
<g>
</g>
<g>
</g>
<g>
</g>
<g>
</g>
<g>
</g>
<g>
</g>
<g>
</g>
<g>
</g>
<g>
</g>
<g>
</g>
</svg>
